<svg width="37" height="37" viewBox="0 0 37 37" fill="none" xmlns="http://www.w3.org/2000/svg">
<path d="M26.1914 7.00882L28.7219 4.47682C29.2495 3.94931 29.9649 3.65295 30.7109 3.65295C31.457 3.65295 32.1724 3.94931 32.6999 4.47682C33.2275 5.00434 33.5238 5.71981 33.5238 6.46582C33.5238 7.21184 33.2275 7.92731 32.6999 8.45482L16.7714 24.3833C15.9784 25.1759 15.0005 25.7584 13.9259 26.0783L9.89844 27.2783L11.0984 23.2508C11.4184 22.1763 12.0009 21.1983 12.7934 20.4053L26.1914 7.00882ZM26.1914 7.00882L30.1484 10.9658M27.8984 21.2783V28.4033C27.8984 29.2984 27.5429 30.1569 26.9099 30.7898C26.277 31.4227 25.4185 31.7783 24.5234 31.7783H8.77344C7.87833 31.7783 7.01989 31.4227 6.38695 30.7898C5.75402 30.1569 5.39844 29.2984 5.39844 28.4033V12.6533C5.39844 11.7582 5.75402 10.8998 6.38695 10.2668C7.01989 9.6339 7.87833 9.27832 8.77344 9.27832H15.8984" stroke="#262626" stroke-width="2.7" stroke-linecap="round" stroke-linejoin="round"/>
</svg>
