<svg width="60" height="60" viewBox="0 0 60 60" fill="none" xmlns="http://www.w3.org/2000/svg">
<path fill-rule="evenodd" clip-rule="evenodd" d="M37.3704 41.3479C34.2592 43.6433 30.413 45 26.25 45C15.8947 45 7.5 36.6053 7.5 26.25C7.5 15.8947 15.8947 7.5 26.25 7.5C36.6053 7.5 45 15.8947 45 26.25C45 30.413 43.6433 34.2592 41.3479 37.3704L51.6762 47.6988C52.7746 48.7971 52.7746 50.5779 51.6762 51.6762C50.5779 52.7746 48.7971 52.7746 47.6988 51.6762L37.3704 41.3479ZM39.375 26.25C39.375 33.4987 33.4987 39.375 26.25 39.375C19.0013 39.375 13.125 33.4987 13.125 26.25C13.125 19.0013 19.0013 13.125 26.25 13.125C33.4987 13.125 39.375 19.0013 39.375 26.25Z" fill="#262626"/>
</svg>
