<svg width="3449" height="1590" viewBox="0 0 3449 1590" fill="none" xmlns="http://www.w3.org/2000/svg">
<path d="M310 1145C256.667 1145 209.333 1134 168 1112C126.667 1089.33 94 1059 70 1021C46 982.333 34 938.333 34 889C34 839.667 46 796 70 758C94 719.333 126.667 688.667 168 666C209.333 643.333 256.667 632 310 632H387V763H316C290 763 267.667 768.667 249 780C230.333 790.667 215.667 805.667 205 825C195 843.667 190 865 190 889C190 913 195 934.667 205 954C215.667 972.667 230.333 987.667 249 999C267.667 1009.67 290 1015 316 1015H387V1145H310ZM679.039 1157C633.706 1157 593.706 1145.33 559.039 1122C524.372 1098.67 497.372 1067.33 478.039 1028C458.706 988 449.039 943 449.039 893C449.039 841 460.372 794.667 483.039 754C505.706 712.667 537.706 680 579.039 656C621.039 632 670.372 620 727.039 620C784.372 620 833.039 632 873.039 656C913.706 679.333 944.706 711.667 966.039 753C988.039 793.667 999.039 839.333 999.039 890V1145H847.039V1063H843.039C833.706 1081 821.706 1097.33 807.039 1112C792.372 1126 774.372 1137 753.039 1145C732.372 1153 707.706 1157 679.039 1157ZM725.039 1023C748.372 1023 768.706 1017.33 786.039 1006C804.039 994 817.706 977.667 827.039 957C836.372 936.333 841.039 913.333 841.039 888C841.039 863.333 836.372 841 827.039 821C817.706 801 804.039 785.333 786.039 774C768.706 762 748.372 756 725.039 756C701.039 756 680.039 762 662.039 774C644.039 785.333 630.372 801 621.039 821C611.706 841 607.039 863.333 607.039 888C607.039 913.333 611.706 936.333 621.039 957C630.372 977.667 644.039 994 662.039 1006C680.039 1017.33 701.039 1023 725.039 1023ZM1365.66 1145C1312.33 1145 1265 1134 1223.66 1112C1182.33 1089.33 1149.66 1059 1125.66 1021C1101.66 982.333 1089.66 938.333 1089.66 889C1089.66 839.667 1101.66 796 1125.66 758C1149.66 719.333 1182.33 688.667 1223.66 666C1265 643.333 1312.33 632 1365.66 632H1442.66V763H1371.66C1345.66 763 1323.33 768.667 1304.66 780C1286 790.667 1271.33 805.667 1260.66 825C1250.66 843.667 1245.66 865 1245.66 889C1245.66 913 1250.66 934.667 1260.66 954C1271.33 972.667 1286 987.667 1304.66 999C1323.33 1009.67 1345.66 1015 1371.66 1015H1442.66V1145H1365.66Z" fill="white"/>
<path d="M2147.35 1157C2094.68 1157 2047.35 1145.33 2005.35 1122C1963.35 1098.67 1930.02 1066.67 1905.35 1026C1881.35 985.333 1869.35 939.667 1869.35 889C1869.35 837.667 1881.35 792 1905.35 752C1930.02 711.333 1963.35 679.333 2005.35 656C2047.35 632 2094.68 620 2147.35 620C2200.02 620 2247.02 632 2288.35 656C2330.35 679.333 2363.35 711.333 2387.35 752C2412.02 792 2424.35 837.667 2424.35 889C2424.35 939.667 2412.02 985.333 2387.35 1026C2363.35 1066.67 2330.35 1098.67 2288.35 1122C2246.35 1145.33 2199.35 1157 2147.35 1157ZM2147.35 1022C2172.02 1022 2193.35 1016 2211.35 1004C2229.35 992 2243.35 976 2253.35 956C2263.35 936 2268.35 913.333 2268.35 888C2268.35 863.333 2263.35 841 2253.35 821C2243.35 801 2229.35 785 2211.35 773C2193.35 761 2172.02 755 2147.35 755C2122.68 755 2101.02 761 2082.35 773C2064.35 785 2050.35 801 2040.35 821C2030.35 841 2025.35 863.333 2025.35 888C2025.35 913.333 2030.35 936 2040.35 956C2050.35 976 2064.35 992 2082.35 1004C2101.02 1016 2122.68 1022 2147.35 1022ZM2772.4 1157C2719.73 1157 2674.07 1147 2635.4 1127C2597.4 1106.33 2568.07 1078.67 2547.4 1044C2526.73 1008.67 2516.4 969.667 2516.4 927V632H2671.4V923C2671.4 941 2675.73 957.667 2684.4 973C2693.07 987.667 2704.73 999.667 2719.4 1009C2734.73 1017.67 2752.07 1022 2771.4 1022C2790.07 1022 2806.73 1017.67 2821.4 1009C2836.73 999.667 2848.73 987.667 2857.4 973C2866.07 957.667 2870.4 941 2870.4 923V632H3025.4V927C3025.4 969.667 3015.4 1008.67 2995.4 1044C2975.4 1078.67 2946.4 1106.33 2908.4 1127C2871.07 1147 2825.73 1157 2772.4 1157ZM3137.4 1145V783C3137.4 736.333 3150.73 699.667 3177.4 673C3204.07 646.333 3241.07 633 3288.4 633H3437.4V759H3326.4C3317.07 759 3309.07 762.333 3302.4 769C3295.73 775 3292.4 783 3292.4 793V1145H3137.4Z" fill="#75F37C"/>
<path d="M1580 145C1580 89.7715 1624.77 45 1680 45C1735.23 45 1780 89.7715 1780 145V1145H1580V145Z" fill="#75F37C"/>
<path d="M1780 265H2060C2060 356.127 1986.13 430 1895 430H1780V265Z" fill="#75F37C"/>
<path d="M1880 190C1880 140.294 1920.29 100 1970 100C2019.71 100 2060 140.294 2060 190V265H1880V190Z" fill="#75F37C"/>
<path d="M1580 410H1300C1300 501.127 1373.87 575 1465 575H1580V410Z" fill="#75F37C"/>
<path d="M1480 335C1480 285.294 1439.71 245 1390 245C1340.29 245 1300 285.294 1300 335V410H1480V335Z" fill="#75F37C"/>
</svg>
