<svg width="139" height="64" viewBox="0 0 139 64" fill="none" xmlns="http://www.w3.org/2000/svg">
<path d="M12.4518 46C10.3096 46 8.40833 45.5582 6.74809 44.6745C5.08784 43.764 3.77572 42.5456 2.8117 41.0193C1.84769 39.4661 1.36568 37.6988 1.36568 35.7172C1.36568 33.7356 1.84769 31.9817 2.8117 30.4553C3.77572 28.9022 5.08784 27.6704 6.74809 26.7599C8.40833 25.8495 10.3096 25.3942 12.4518 25.3942H15.5447V30.6561H12.6928C11.6485 30.6561 10.7514 30.8838 10.0016 31.339C9.25184 31.7674 8.66272 32.3699 8.23427 33.1465C7.8326 33.8963 7.63176 34.7532 7.63176 35.7172C7.63176 36.6812 7.8326 37.5515 8.23427 38.3281C8.66272 39.0779 9.25184 39.6804 10.0016 40.1356C10.7514 40.564 11.6485 40.7783 12.6928 40.7783H15.5447V46H12.4518ZM27.2751 46.482C25.4542 46.482 23.8475 46.0134 22.455 45.0762C21.0626 44.1389 19.978 42.8804 19.2015 41.3004C18.4249 39.6938 18.0366 37.8862 18.0366 35.8779C18.0366 33.7892 18.4919 31.9281 19.4023 30.2946C20.3128 28.6344 21.5981 27.3223 23.2584 26.3583C24.9454 25.3942 26.927 24.9122 29.2031 24.9122C31.506 24.9122 33.4608 25.3942 35.0675 26.3583C36.701 27.2955 37.9462 28.5942 38.8031 30.2545C39.6867 31.8879 40.1286 33.7222 40.1286 35.7574V46H34.0232V42.7063H33.8625C33.4876 43.4293 33.0056 44.0854 32.4165 44.6745C31.8274 45.2368 31.1044 45.6787 30.2475 46C29.4173 46.3213 28.4265 46.482 27.2751 46.482ZM29.1228 41.0996C30.06 41.0996 30.8767 40.872 31.573 40.4168C32.296 39.9348 32.8449 39.2787 33.2198 38.4486C33.5947 37.6185 33.7822 36.6946 33.7822 35.677C33.7822 34.6862 33.5947 33.7892 33.2198 32.9858C32.8449 32.1825 32.296 31.5532 31.573 31.098C30.8767 30.616 30.06 30.375 29.1228 30.375C28.1588 30.375 27.3153 30.616 26.5922 31.098C25.8692 31.5532 25.3203 32.1825 24.9454 32.9858C24.5705 33.7892 24.383 34.6862 24.383 35.677C24.383 36.6946 24.5705 37.6185 24.9454 38.4486C25.3203 39.2787 25.8692 39.9348 26.5922 40.4168C27.3153 40.872 28.1588 41.0996 29.1228 41.0996ZM54.8549 46C52.7126 46 50.8114 45.5582 49.1511 44.6745C47.4909 43.764 46.1788 42.5456 45.2147 41.0193C44.2507 39.4661 43.7687 37.6988 43.7687 35.7172C43.7687 33.7356 44.2507 31.9817 45.2147 30.4553C46.1788 28.9022 47.4909 27.6704 49.1511 26.7599C50.8114 25.8495 52.7126 25.3942 54.8549 25.3942H57.9477V30.6561H55.0959C54.0515 30.6561 53.1545 30.8838 52.4047 31.339C51.6549 31.7674 51.0658 32.3699 50.6373 33.1465C50.2356 33.8963 50.0348 34.7532 50.0348 35.7172C50.0348 36.6812 50.2356 37.5515 50.6373 38.3281C51.0658 39.0779 51.6549 39.6804 52.4047 40.1356C53.1545 40.564 54.0515 40.7783 55.0959 40.7783H57.9477V46H54.8549Z" fill="#262626"/>
<path d="M86.2531 46.482C84.1376 46.482 82.2363 46.0134 80.5493 45.0762C78.8623 44.1389 77.5234 42.8536 76.5326 41.2201C75.5686 39.5866 75.0866 37.7523 75.0866 35.7172C75.0866 33.6553 75.5686 31.821 76.5326 30.2143C77.5234 28.5808 78.8623 27.2955 80.5493 26.3583C82.2363 25.3942 84.1376 24.9122 86.2531 24.9122C88.3685 24.9122 90.2564 25.3942 91.9166 26.3583C93.6036 27.2955 94.9292 28.5808 95.8932 30.2143C96.884 31.821 97.3794 33.6553 97.3794 35.7172C97.3794 37.7523 96.884 39.5866 95.8932 41.2201C94.9292 42.8536 93.6036 44.1389 91.9166 45.0762C90.2296 46.0134 88.3417 46.482 86.2531 46.482ZM86.2531 41.0594C87.2438 41.0594 88.1007 40.8184 88.8238 40.3364C89.5468 39.8544 90.1091 39.2118 90.5108 38.4084C90.9124 37.6051 91.1133 36.6946 91.1133 35.677C91.1133 34.6862 90.9124 33.7892 90.5108 32.9858C90.1091 32.1825 89.5468 31.5398 88.8238 31.0578C88.1007 30.5758 87.2438 30.3348 86.2531 30.3348C85.2623 30.3348 84.392 30.5758 83.6422 31.0578C82.9192 31.5398 82.3568 32.1825 81.9552 32.9858C81.5535 33.7892 81.3527 34.6862 81.3527 35.677C81.3527 36.6946 81.5535 37.6051 81.9552 38.4084C82.3568 39.2118 82.9192 39.8544 83.6422 40.3364C84.392 40.8184 85.2623 41.0594 86.2531 41.0594ZM111.359 46.482C109.244 46.482 107.41 46.0803 105.857 45.277C104.33 44.4469 103.152 43.3356 102.322 41.9431C101.492 40.5239 101.077 38.9574 101.077 37.2436V25.3942H107.303V37.0829C107.303 37.8059 107.477 38.4754 107.825 39.0912C108.173 39.6804 108.641 40.1624 109.231 40.5373C109.846 40.8854 110.543 41.0594 111.319 41.0594C112.069 41.0594 112.739 40.8854 113.328 40.5373C113.944 40.1624 114.426 39.6804 114.774 39.0912C115.122 38.4754 115.296 37.8059 115.296 37.0829V25.3942H121.522V37.2436C121.522 38.9574 121.12 40.5239 120.317 41.9431C119.513 43.3356 118.349 44.4469 116.822 45.277C115.323 46.0803 113.502 46.482 111.359 46.482ZM126.02 46V31.4595C126.02 29.585 126.556 28.1122 127.627 27.0411C128.698 25.97 130.184 25.4344 132.086 25.4344H138.071V30.4955H133.612C133.237 30.4955 132.916 30.6294 132.648 30.8971C132.38 31.1381 132.246 31.4595 132.246 31.8612V46H126.02Z" fill="#04BC20"/>
<path d="M63.0625 5.82427C63.0625 3.6059 64.8608 1.80755 67.0792 1.80755C69.2976 1.80755 71.0959 3.6059 71.0959 5.82427V45.9914H63.0625V5.82427Z" fill="#04BC20"/>
<path d="M71.0959 10.6443H82.3427C82.3427 14.3046 79.3754 17.2719 75.7151 17.2719H71.0959V10.6443Z" fill="#04BC20"/>
<path d="M75.1126 7.63179C75.1126 5.63526 76.7311 4.01675 78.7277 4.01675C80.7242 4.01675 82.3427 5.63526 82.3427 7.63179V10.6443H75.1126V7.63179Z" fill="#04BC20"/>
<path d="M63.0625 16.4686H51.8157C51.8157 20.1289 54.7829 23.0962 58.4432 23.0962H63.0625V16.4686Z" fill="#04BC20"/>
<path d="M59.0458 13.456C59.0458 11.4595 57.4272 9.84099 55.4307 9.84099C53.4342 9.84099 51.8157 11.4595 51.8157 13.456V16.4686H59.0458V13.456Z" fill="#04BC20"/>
</svg>
