<svg width="37" height="37" viewBox="0 0 37 37" fill="none" xmlns="http://www.w3.org/2000/svg">
<path d="M22.6086 13.6L22.0894 27.1M14.9067 27.1L14.3875 13.6M29.3395 8.78583C29.8525 8.8633 30.3637 8.94618 30.873 9.03441M29.3395 8.78583L27.7378 29.6088C27.6025 31.3672 26.1363 32.725 24.3727 32.725H12.6234C10.8598 32.725 9.3936 31.3672 9.25834 29.6088L7.65657 8.78583M29.3395 8.78583C27.6199 8.52613 25.8803 8.32725 24.123 8.19146M6.12305 9.03441C6.63241 8.94618 7.1436 8.8633 7.65657 8.78583M7.65657 8.78583C9.37621 8.52613 11.1158 8.32725 12.873 8.19146M24.123 8.19146V6.81726C24.123 5.04821 22.7571 3.57132 20.9889 3.51476C20.1619 3.4883 19.3315 3.47498 18.498 3.47498C17.6646 3.47498 16.8342 3.4883 16.0072 3.51476C14.239 3.57132 12.873 5.04821 12.873 6.81726V8.19146M24.123 8.19146C22.2669 8.04803 20.391 7.97498 18.498 7.97498C16.6051 7.97498 14.7292 8.04803 12.873 8.19146" stroke="#262626" stroke-width="2.7" stroke-linecap="round" stroke-linejoin="round"/>
</svg>
