<svg width="56" height="56" viewBox="0 0 56 56" fill="none" xmlns="http://www.w3.org/2000/svg">
<path fill-rule="evenodd" clip-rule="evenodd" d="M12.6781 12.6779C13.357 11.999 14.4577 11.999 15.1366 12.6779L27.8144 25.3557L40.4923 12.6779C41.1711 11.999 42.2718 11.999 42.9507 12.6779C43.6296 13.3567 43.6296 14.4574 42.9507 15.1363L30.2729 27.8142L42.9507 40.492C43.6296 41.1709 43.6296 42.2716 42.9507 42.9505C42.2718 43.6293 41.1711 43.6293 40.4923 42.9505L27.8144 30.2726L15.1366 42.9505C14.4577 43.6293 13.357 43.6293 12.6781 42.9505C11.9992 42.2716 11.9992 41.1709 12.6781 40.492L25.356 27.8142L12.6781 15.1363C11.9992 14.4574 11.9992 13.3567 12.6781 12.6779Z" fill="#262626"/>
</svg>
